<mxfile host="app.diagrams.net" modified="2022-03-17T11:18:31.812Z" agent="5.0 (Windows NT 10.0; Win64; x64) AppleWebKit/537.36 (KHTML, like Gecko) Chrome/99.0.4844.51 Safari/537.36" etag="jfjQUkKF_7NWmDNyhpHt" version="17.1.3" type="github">
  <diagram id="rkR9y3kEsJQ_U9B9i4gf" name="Page-1">
    <mxGraphModel dx="875" dy="-4240" grid="1" gridSize="10" guides="1" tooltips="1" connect="1" arrows="1" fold="1" page="1" pageScale="1" pageWidth="827" pageHeight="1169" math="0" shadow="0">
      <root>
        <mxCell id="0" />
        <mxCell id="1" parent="0" />
        <mxCell id="9yQDCudZbZo5ZTMpNuyy-1" value="Cas d&#39;utilisation : Gerer les &lt;br&gt;bon de commandes" style="shape=umlFrame;tabPosition=left;html=1;boundedLbl=1;labelInHeader=1;width=182;height=30;swimlaneFillColor=#ffffff;align=left;spacingLeft=5;fontSize=14;" vertex="1" parent="1">
          <mxGeometry x="414" y="4970" width="576" height="480" as="geometry" />
        </mxCell>
        <mxCell id="9yQDCudZbZo5ZTMpNuyy-23" style="rounded=0;orthogonalLoop=1;jettySize=auto;html=1;entryX=0;entryY=0.5;entryDx=0;entryDy=0;endArrow=none;endFill=0;" edge="1" parent="1" source="9yQDCudZbZo5ZTMpNuyy-2" target="9yQDCudZbZo5ZTMpNuyy-3">
          <mxGeometry relative="1" as="geometry" />
        </mxCell>
        <mxCell id="9yQDCudZbZo5ZTMpNuyy-24" style="edgeStyle=none;rounded=0;orthogonalLoop=1;jettySize=auto;html=1;entryX=0.063;entryY=0.667;entryDx=0;entryDy=0;entryPerimeter=0;endArrow=none;endFill=0;" edge="1" parent="1" source="9yQDCudZbZo5ZTMpNuyy-2" target="9yQDCudZbZo5ZTMpNuyy-16">
          <mxGeometry relative="1" as="geometry" />
        </mxCell>
        <mxCell id="9yQDCudZbZo5ZTMpNuyy-2" value="&lt;span style=&quot;font-weight: 700&quot;&gt;Administrateur&lt;/span&gt;" style="shape=umlActor;verticalLabelPosition=bottom;verticalAlign=top;html=1;outlineConnect=0;" vertex="1" parent="1">
          <mxGeometry x="310" y="5169.5" width="30" height="60" as="geometry" />
        </mxCell>
        <mxCell id="9yQDCudZbZo5ZTMpNuyy-3" value="Consulter les bon de commande interne" style="shape=ellipse;html=1;strokeWidth=3;fontStyle=1;whiteSpace=wrap;align=center;perimeter=ellipsePerimeter;fillColor=#dae8fc;strokeColor=#67BFBC;" vertex="1" parent="1">
          <mxGeometry x="490" y="5074.5" width="160" height="60" as="geometry" />
        </mxCell>
        <mxCell id="9yQDCudZbZo5ZTMpNuyy-4" value="Ajouter une bon de commande interne" style="shape=ellipse;html=1;strokeWidth=3;fontStyle=1;whiteSpace=wrap;align=center;perimeter=ellipsePerimeter;fillColor=#dae8fc;strokeColor=#67BFBC;" vertex="1" parent="1">
          <mxGeometry x="780" y="5014" width="160" height="45" as="geometry" />
        </mxCell>
        <mxCell id="9yQDCudZbZo5ZTMpNuyy-5" value="Supprimer un bon de commande&amp;nbsp;interne" style="shape=ellipse;html=1;strokeWidth=3;fontStyle=1;whiteSpace=wrap;align=center;perimeter=ellipsePerimeter;fillColor=#dae8fc;strokeColor=#67BFBC;" vertex="1" parent="1">
          <mxGeometry x="780" y="5080" width="160" height="45" as="geometry" />
        </mxCell>
        <mxCell id="9yQDCudZbZo5ZTMpNuyy-6" value="modifier un bon de commande&amp;nbsp;interne" style="shape=ellipse;html=1;strokeWidth=3;fontStyle=1;whiteSpace=wrap;align=center;perimeter=ellipsePerimeter;fillColor=#dae8fc;strokeColor=#67BFBC;" vertex="1" parent="1">
          <mxGeometry x="780" y="5150" width="160" height="45" as="geometry" />
        </mxCell>
        <mxCell id="9yQDCudZbZo5ZTMpNuyy-7" value="&amp;lt;&amp;lt;extend&amp;gt;&amp;gt;" style="edgeStyle=none;html=1;startArrow=open;endArrow=none;startSize=12;verticalAlign=bottom;dashed=1;labelBackgroundColor=none;rounded=0;entryX=0;entryY=0.5;entryDx=0;entryDy=0;exitX=1;exitY=0;exitDx=0;exitDy=0;" edge="1" parent="1" source="9yQDCudZbZo5ZTMpNuyy-3" target="9yQDCudZbZo5ZTMpNuyy-4">
          <mxGeometry x="0.4735" y="-1" width="160" relative="1" as="geometry">
            <mxPoint x="603" y="5063" as="sourcePoint" />
            <mxPoint x="763" y="5063" as="targetPoint" />
            <mxPoint as="offset" />
          </mxGeometry>
        </mxCell>
        <mxCell id="9yQDCudZbZo5ZTMpNuyy-8" value="&amp;lt;&amp;lt;extend&amp;gt;&amp;gt;" style="edgeStyle=none;html=1;startArrow=open;endArrow=none;startSize=12;verticalAlign=bottom;dashed=1;labelBackgroundColor=none;rounded=0;" edge="1" parent="1" source="9yQDCudZbZo5ZTMpNuyy-3" target="9yQDCudZbZo5ZTMpNuyy-5">
          <mxGeometry x="0.385" y="3" width="160" relative="1" as="geometry">
            <mxPoint x="603" y="5063" as="sourcePoint" />
            <mxPoint x="763" y="5063" as="targetPoint" />
            <mxPoint x="-1" as="offset" />
          </mxGeometry>
        </mxCell>
        <mxCell id="9yQDCudZbZo5ZTMpNuyy-13" value="&amp;lt;&amp;lt;extend&amp;gt;&amp;gt;" style="edgeStyle=none;html=1;startArrow=open;endArrow=none;startSize=12;verticalAlign=bottom;dashed=1;labelBackgroundColor=none;rounded=0;exitX=1;exitY=1;exitDx=0;exitDy=0;" edge="1" parent="1" source="9yQDCudZbZo5ZTMpNuyy-3" target="9yQDCudZbZo5ZTMpNuyy-6">
          <mxGeometry x="0.3412" y="2" width="160" relative="1" as="geometry">
            <mxPoint x="615" y="5155" as="sourcePoint" />
            <mxPoint x="778" y="5152" as="targetPoint" />
            <mxPoint as="offset" />
          </mxGeometry>
        </mxCell>
        <mxCell id="9yQDCudZbZo5ZTMpNuyy-16" value="Consulter les bon de commande clients" style="shape=ellipse;html=1;strokeWidth=3;fontStyle=1;whiteSpace=wrap;align=center;perimeter=ellipsePerimeter;fillColor=#dae8fc;strokeColor=#67BFBC;" vertex="1" parent="1">
          <mxGeometry x="490" y="5290" width="160" height="60" as="geometry" />
        </mxCell>
        <mxCell id="9yQDCudZbZo5ZTMpNuyy-17" value="Ajouter une bon de commande clients" style="shape=ellipse;html=1;strokeWidth=3;fontStyle=1;whiteSpace=wrap;align=center;perimeter=ellipsePerimeter;fillColor=#dae8fc;strokeColor=#67BFBC;" vertex="1" parent="1">
          <mxGeometry x="780" y="5229.5" width="160" height="45" as="geometry" />
        </mxCell>
        <mxCell id="9yQDCudZbZo5ZTMpNuyy-18" value="Supprimer un bon de commande clients" style="shape=ellipse;html=1;strokeWidth=3;fontStyle=1;whiteSpace=wrap;align=center;perimeter=ellipsePerimeter;fillColor=#dae8fc;strokeColor=#67BFBC;" vertex="1" parent="1">
          <mxGeometry x="780" y="5295.5" width="160" height="45" as="geometry" />
        </mxCell>
        <mxCell id="9yQDCudZbZo5ZTMpNuyy-19" value="modifier un bon de commande clients" style="shape=ellipse;html=1;strokeWidth=3;fontStyle=1;whiteSpace=wrap;align=center;perimeter=ellipsePerimeter;fillColor=#dae8fc;strokeColor=#67BFBC;" vertex="1" parent="1">
          <mxGeometry x="780" y="5365.5" width="160" height="45" as="geometry" />
        </mxCell>
        <mxCell id="9yQDCudZbZo5ZTMpNuyy-20" value="&amp;lt;&amp;lt;extend&amp;gt;&amp;gt;" style="edgeStyle=none;html=1;startArrow=open;endArrow=none;startSize=12;verticalAlign=bottom;dashed=1;labelBackgroundColor=none;rounded=0;entryX=0;entryY=0.5;entryDx=0;entryDy=0;exitX=1;exitY=1;exitDx=0;exitDy=0;" edge="1" parent="1" source="9yQDCudZbZo5ZTMpNuyy-16" target="9yQDCudZbZo5ZTMpNuyy-19">
          <mxGeometry x="0.5768" y="8" width="160" relative="1" as="geometry">
            <mxPoint x="600" y="5220" as="sourcePoint" />
            <mxPoint x="760" y="5220" as="targetPoint" />
            <mxPoint y="-1" as="offset" />
          </mxGeometry>
        </mxCell>
        <mxCell id="9yQDCudZbZo5ZTMpNuyy-21" value="&amp;lt;&amp;lt;extend&amp;gt;&amp;gt;" style="edgeStyle=none;html=1;startArrow=open;endArrow=none;startSize=12;verticalAlign=bottom;dashed=1;labelBackgroundColor=none;rounded=0;" edge="1" parent="1" source="9yQDCudZbZo5ZTMpNuyy-16" target="9yQDCudZbZo5ZTMpNuyy-18">
          <mxGeometry x="0.5381" y="-1" width="160" relative="1" as="geometry">
            <mxPoint x="600" y="5220" as="sourcePoint" />
            <mxPoint x="760" y="5220" as="targetPoint" />
            <mxPoint as="offset" />
          </mxGeometry>
        </mxCell>
        <mxCell id="9yQDCudZbZo5ZTMpNuyy-22" value="&amp;lt;&amp;lt;extend&amp;gt;&amp;gt;" style="edgeStyle=none;html=1;startArrow=open;endArrow=none;startSize=12;verticalAlign=bottom;dashed=1;labelBackgroundColor=none;rounded=0;entryX=0;entryY=1;entryDx=0;entryDy=0;exitX=1;exitY=0;exitDx=0;exitDy=0;" edge="1" parent="1" source="9yQDCudZbZo5ZTMpNuyy-16" target="9yQDCudZbZo5ZTMpNuyy-17">
          <mxGeometry x="0.3916" y="-3" width="160" relative="1" as="geometry">
            <mxPoint x="600" y="5261" as="sourcePoint" />
            <mxPoint x="760" y="5261" as="targetPoint" />
            <mxPoint as="offset" />
          </mxGeometry>
        </mxCell>
      </root>
    </mxGraphModel>
  </diagram>
</mxfile>
